<?xml version="1.0" encoding="utf-8"?>
<!-- Generator: Adobe Illustrator 18.0.0, SVG Export Plug-In . SVG Version: 6.00 Build 0)  -->
<!DOCTYPE svg PUBLIC "-//W3C//DTD SVG 1.1//EN" "http://www.w3.org/Graphics/SVG/1.1/DTD/svg11.dtd">
<svg version="1.1" id="Layer_1" xmlns="http://www.w3.org/2000/svg" xmlns:xlink="http://www.w3.org/1999/xlink" x="0px" y="0px"
	 viewBox="0 0 1133.9 1133.9" enable-background="new 0 0 1133.9 1133.9" xml:space="preserve">
<path id="kerek" fill-rule="evenodd" clip-rule="evenodd" fill="#CF8A31" d="M566.9,484c22.9,0,43.7,9.3,58.7,24.3
	c15,15,24.3,35.8,24.3,58.7s-9.3,43.7-24.3,58.7c-15,15-35.8,24.3-58.7,24.3s-43.7-9.3-58.7-24.3c-15-15-24.3-35.8-24.3-58.7
	s9.3-43.7,24.3-58.7C523.3,493.3,544,484,566.9,484L566.9,484z M606,527.8c-10-10-23.8-16.2-39.1-16.2s-29.1,6.2-39.1,16.2
	c-10,10-16.2,23.8-16.2,39.1c0,15.3,6.2,29.1,16.2,39.1c10,10,23.8,16.2,39.1,16.2S596,616,606,606c10-10,16.2-23.8,16.2-39.1
	C622.2,551.7,616,537.8,606,527.8L606,527.8z M566.9,0C410.4,0,268.6,63.5,166.1,166.1C63.5,268.6,0,410.4,0,566.9
	s63.5,298.3,166.1,400.9c102.6,102.6,244.3,166.1,400.9,166.1s298.3-63.5,400.9-166.1c102.6-102.6,166.1-244.3,166.1-400.9
	s-63.5-298.3-166.1-400.9C865.2,63.5,723.5,0,566.9,0L566.9,0z M938.5,195.4C843.4,100.3,712,41.5,566.9,41.5
	s-276.5,58.8-371.5,153.9C100.3,290.5,41.5,421.8,41.5,566.9s58.8,276.5,153.9,371.5c95.1,95.1,226.4,153.9,371.5,153.9
	s276.5-58.8,371.5-153.9c95.1-95.1,153.9-226.4,153.9-371.5S1033.6,290.5,938.5,195.4L938.5,195.4z M398.3,605.3
	c2.2,9.6,5.1,18.8,8.8,27.8c3.7,8.9,8.1,17.5,13.4,25.9l5.9,9.4l-7.8,7.8L260.4,834.3l-10.8,10.8l-9.6-11.9
	c-26.2-32.4-47.1-67.2-62.5-104.5c-15.4-37.2-25.4-76.9-30-118.9l-1.7-15.2l15.4,0l223.8-0.1l11,0L398.3,605.3L398.3,605.3z
	 M381.7,643.6c2.9,7,6.2,13.8,9.9,20.5L251.9,803.8c-20.1-26.8-36.5-55.3-49-85.5c-12.5-30.3-21.3-62.3-26.1-96.1l197.4-0.1
	C376.3,629.4,378.8,636.6,381.7,643.6L381.7,643.6z M330.1,881.9l139.6-139.6c6.7,3.7,13.5,7,20.5,9.9c7,2.9,14.1,5.4,21.5,7.5
	l0,197.5c-33.2-4.7-65-13.3-95.2-25.8C386.3,918.8,357.5,902.3,330.1,881.9L330.1,881.9z M406,956.8
	c-37.3-15.4-72.4-36.4-105.4-62.9l-12-9.6l10.8-10.9l158.2-158.3l7.8-7.8l9.3,5.9c8.3,5.2,16.9,9.7,25.9,13.4
	c9,3.7,18.2,6.7,27.7,8.8l10.7,2.5v11l0,223.8l0,15.3l-15.2-1.6C482.6,982.1,443.3,972.3,406,956.8L406,956.8z M605.3,735.5
	c9.6-2.2,18.8-5.1,27.8-8.8c8.9-3.7,17.5-8.1,25.9-13.4l9.4-5.9l7.8,7.8l158.2,158.2l10.8,10.8l-11.9,9.6
	c-32.4,26.2-67.2,47.1-104.5,62.5c-37.2,15.4-76.9,25.4-118.9,30l-15.2,1.7l0-15.4L594.6,749l0-11L605.3,735.5L605.3,735.5z
	 M643.6,752.2c7-2.9,13.8-6.2,20.5-9.9L803.8,882c-26.8,20.1-55.3,36.5-85.5,49c-30.3,12.5-62.3,21.3-96.1,26.1l-0.1-197.4
	C629.4,757.6,636.6,755.1,643.6,752.2L643.6,752.2z M881.9,803.7L742.3,664.2c3.7-6.7,7-13.5,9.9-20.5c2.9-7,5.4-14.1,7.5-21.5
	l197.5,0c-4.7,33.2-13.3,65-25.8,95.2C918.8,747.6,902.3,776.4,881.9,803.7L881.9,803.7z M956.8,727.8
	c-15.4,37.3-36.4,72.4-62.9,105.4l-9.6,12l-10.8-10.8L715.2,676.1l-7.8-7.8l5.9-9.3c5.2-8.3,9.7-16.9,13.4-25.9
	c3.7-9,6.7-18.2,8.8-27.7l2.5-10.7h11l223.8,0l15.3,0l-1.6,15.2C982.1,651.2,972.3,690.6,956.8,727.8L956.8,727.8z M735.5,528.5
	c-2.2-9.6-5.1-18.8-8.8-27.8c-3.7-8.9-8.1-17.5-13.4-25.9l-5.9-9.4l7.8-7.8l158.2-158.2l10.8-10.8l9.6,11.9
	c26.2,32.4,47.1,67.2,62.5,104.5c15.4,37.2,25.4,76.9,30,118.9l1.7,15.2l-15.4,0L749,539.3l-11,0L735.5,528.5L735.5,528.5z
	 M752.2,490.3c-2.9-7-6.2-13.8-9.9-20.5L882,330.1c20.1,26.8,36.5,55.3,49,85.5c12.5,30.3,21.3,62.3,26.1,96.1l-197.4,0.1
	C757.6,504.4,755.1,497.3,752.2,490.3L752.2,490.3z M659,420.6c-8.3-5.2-16.9-9.7-25.9-13.4c-9-3.7-18.2-6.7-27.7-8.8l-10.7-2.5
	l0-11l0-223.8v-15.3l15.2,1.6c82.9,8.7,157.4,39.5,223.4,92.5l12,9.6l-10.8,10.8L676.1,418.6l-7.8,7.8L659,420.6L659,420.6z
	 M643.7,381.7c-7-2.9-14.1-5.4-21.5-7.5l0-197.5c66.5,9.4,127,34.5,181.5,75.3L664.2,391.6C657.5,387.9,650.7,384.6,643.7,381.7
	L643.7,381.7z M457.8,418.6L299.5,260.4l-10.8-10.8l11.9-9.6c32.4-26.2,67.2-47.1,104.5-62.5C442.3,162,482,152,524,147.4l15.2-1.7
	l0,15.4l0.1,223.8l0,11l-10.8,2.4c-9.6,2.2-18.8,5.1-27.8,8.8c-8.9,3.7-17.5,8.1-25.9,13.4l-9.4,5.9L457.8,418.6L457.8,418.6z
	 M330.1,251.9c26.8-20.1,55.3-36.5,85.5-49c30.3-12.5,62.3-21.3,96.1-26.1l0.1,197.4c-7.3,2.1-14.5,4.6-21.5,7.5
	c-7,2.9-13.8,6.2-20.5,9.9L330.1,251.9L330.1,251.9z M252,330.1l139.6,139.6c-3.7,6.7-7,13.5-9.9,20.5c-2.9,7-5.4,14.1-7.5,21.5
	H176.7c4.7-33.2,13.3-64.9,25.8-95.1C215,386.3,231.5,357.5,252,330.1L252,330.1z M177,406c15.4-37.3,36.4-72.4,62.9-105.4l9.6-12
	l10.9,10.8l158.3,158.2l7.8,7.8l-5.9,9.3c-5.2,8.3-9.7,16.9-13.4,25.9c-3.7,9-6.7,18.2-8.8,27.7l-2.5,10.8h-11H161.1h-15.3l1.6-15.2
	C151.7,482.6,161.6,443.3,177,406z"/>
</svg>
